<svg width="100" height="98" xmlns="http://www.w3.org/2000/svg" xmlns:xlink="http://www.w3.org/1999/xlink" xml:space="preserve" overflow="hidden"><g transform="translate(-96 -106)"><g><g><g><g><path d="M147.653 151.025 156.921 147.43 163.672 130.223C163.982 129.444 165.081 129.444 165.39 130.223L172.061 147.15 189.199 154.021C189.978 154.331 189.968 155.439 189.189 155.739L172.401 162.221 165.42 179.528C165.101 180.307 163.992 180.297 163.702 179.498L157.381 162.42 147.693 158.715" stroke="#01A88D" stroke-width="1.99738" stroke-linecap="butt" stroke-linejoin="round" stroke-miterlimit="4" stroke-opacity="1" fill="none" fill-rule="nonzero"/><path d="M188.799 132.839 194.692 135.196C195.101 135.356 195.091 135.935 194.692 136.095L188.929 138.322 186.532 144.274C186.363 144.684 185.783 144.674 185.634 144.264L183.466 138.402 177.464 136.105C177.055 135.945 177.055 135.366 177.464 135.206L183.307 132.939 185.624 127.027C185.783 126.617 186.363 126.617 186.522 127.027L188.819 132.839Z" stroke="#01A88D" stroke-width="1.99738" stroke-linecap="butt" stroke-linejoin="round" stroke-miterlimit="4" stroke-opacity="1" fill="none" fill-rule="nonzero"/><path d="M147.494 113.435 147.494 196.376 131.615 201.749 110.332 189.215 110.332 172.457 97.9987 165.197 97.9987 144.614 110.173 137.403 110.173 120.605 131.674 108.251 147.494 113.435Z" stroke="#FFFFFF" stroke-width="1.99738" stroke-linecap="butt" stroke-linejoin="round" stroke-miterlimit="4" stroke-opacity="1" fill="none" fill-rule="nonzero"/><path d="M122.736 130.722 122.736 113.435" stroke="#FFFFFF" stroke-width="1.99738" stroke-linecap="butt" stroke-linejoin="round" stroke-miterlimit="4" stroke-opacity="1" fill="none" fill-rule="nonzero"/><path d="M121.028 180.956 147.853 165.147" stroke="#FFFFFF" stroke-width="1.99738" stroke-linecap="butt" stroke-linejoin="round" stroke-miterlimit="4" stroke-opacity="1" fill="none" fill-rule="nonzero"/><path d="M136.758 187.627 122.996 196.306" stroke="#FFFFFF" stroke-width="1.99738" stroke-linecap="butt" stroke-linejoin="round" stroke-miterlimit="4" stroke-opacity="1" fill="none" fill-rule="nonzero"/><path d="M121.388 165.147 109.923 172.387" stroke="#FFFFFF" stroke-width="1.99738" stroke-linecap="butt" stroke-linejoin="round" stroke-miterlimit="4" stroke-opacity="1" fill="none" fill-rule="nonzero"/><path d="M133.143 125.529 133.143 137.403 122.736 144.723 110.173 137.403" stroke="#FFFFFF" stroke-width="1.99738" stroke-linecap="butt" stroke-linejoin="round" stroke-miterlimit="4" stroke-opacity="1" fill="none" fill-rule="nonzero"/><path d="M113.888 158.346 122.736 153.033 122.736 145.173" stroke="#FFFFFF" stroke-width="1.99738" stroke-linecap="butt" stroke-linejoin="round" stroke-miterlimit="4" stroke-opacity="1" fill="none" fill-rule="nonzero"/><path d="M131.595 158.346 122.736 153.033" stroke="#FFFFFF" stroke-width="1.99738" stroke-linecap="butt" stroke-linejoin="round" stroke-miterlimit="4" stroke-opacity="1" fill="none" fill-rule="nonzero"/></g></g></g></g></g></svg>