<svg width="98" height="98" xmlns="http://www.w3.org/2000/svg" xmlns:xlink="http://www.w3.org/1999/xlink" xml:space="preserve" overflow="hidden"><defs><clipPath id="clip0"><rect x="888" y="483" width="42" height="97"/></clipPath></defs><g transform="translate(-840 -482)"><g><g><g><g><g clip-path="url(#clip0)"><path d="M900.37 539.349 900.37 531.918C900.37 530.474 899.204 529.259 897.75 529.259 896.007 529.259 895.141 530.135 895.141 531.869L895.141 539.349C892.322 540.494 890.419 543.413 890.848 546.719 891.246 549.847 893.816 552.367 896.943 552.726 901.157 553.204 904.722 549.917 904.722 545.803 904.722 542.875 902.92 540.385 900.37 539.349Z" stroke="#01A88D" stroke-width="1.99207" stroke-linecap="butt" stroke-linejoin="round" stroke-miterlimit="4" stroke-opacity="1" fill="none" fill-rule="nonzero"/><path d="M910.828 520.902 910.828 507.087C910.828 503.91 908.248 501.33 905.071 501.33L890.449 501.33C887.272 501.33 884.692 503.91 884.692 507.087L884.692 517.884" stroke="#01A88D" stroke-width="1.99207" stroke-linecap="butt" stroke-linejoin="round" stroke-miterlimit="4" stroke-opacity="1" fill="none" fill-rule="nonzero"/><path d="M878.596 517.884 878.596 507.097C878.596 500.543 883.905 495.234 890.459 495.234L905.061 495.234C911.615 495.234 916.924 500.543 916.924 507.097L916.924 520.902" stroke="#01A88D" stroke-width="1.99207" stroke-linecap="butt" stroke-linejoin="round" stroke-miterlimit="4" stroke-opacity="1" fill="none" fill-rule="nonzero"/><path d="M910.709 563.184 873.009 563.184C872.401 563.184 871.903 562.686 871.903 562.078L871.903 522.486C871.903 521.878 872.401 521.38 873.009 521.38L923.059 521.38C923.667 521.38 924.165 521.878 924.165 522.486L924.165 548.084" stroke="#01A88D" stroke-width="1.99207" stroke-linecap="butt" stroke-linejoin="round" stroke-miterlimit="4" stroke-opacity="1" fill="none" fill-rule="nonzero"/></g><path d="M937.004 561.222C937.004 568.483 931.118 574.369 923.856 574.369 916.595 574.369 910.709 568.483 910.709 561.222 910.709 553.96 916.595 548.074 923.856 548.074 931.118 548.074 937.004 553.96 937.004 561.222Z" stroke="#01A88D" stroke-width="1.99207" stroke-linecap="butt" stroke-linejoin="round" stroke-miterlimit="4" stroke-opacity="1" fill="none" fill-rule="nonzero"/><path d="M916.167 562.258 920.848 566.939 931.546 556.242" stroke="#01A88D" stroke-width="1.99207" stroke-linecap="butt" stroke-linejoin="round" stroke-miterlimit="4" stroke-opacity="1" fill="none" fill-rule="nonzero"/><path d="M888.009 490.752 888.009 569.539 872.929 574.638 852.709 562.736 852.709 546.819 840.996 539.926 840.996 520.374 852.56 513.522 852.56 497.565 872.979 485.832 888.009 490.752Z" stroke="#FFFFFF" stroke-width="1.99207" stroke-linecap="butt" stroke-linejoin="round" stroke-miterlimit="4" stroke-opacity="1" fill="none" fill-rule="nonzero"/><path d="M864.493 507.177 864.493 490.762" stroke="#FFFFFF" stroke-width="1.99207" stroke-linecap="butt" stroke-linejoin="round" stroke-miterlimit="4" stroke-opacity="1" fill="none" fill-rule="nonzero"/><path d="M862.869 554.887 888.358 539.877" stroke="#FFFFFF" stroke-width="1.99207" stroke-linecap="butt" stroke-linejoin="round" stroke-miterlimit="4" stroke-opacity="1" fill="none" fill-rule="nonzero"/><path d="M877.81 561.222 864.732 569.469" stroke="#FFFFFF" stroke-width="1.99207" stroke-linecap="butt" stroke-linejoin="round" stroke-miterlimit="4" stroke-opacity="1" fill="none" fill-rule="nonzero"/><path d="M863.208 539.877 852.321 546.749" stroke="#FFFFFF" stroke-width="1.99207" stroke-linecap="butt" stroke-linejoin="round" stroke-miterlimit="4" stroke-opacity="1" fill="none" fill-rule="nonzero"/><path d="M874.373 502.246 874.373 513.522 864.493 520.474 852.56 513.522" stroke="#FFFFFF" stroke-width="1.99207" stroke-linecap="butt" stroke-linejoin="round" stroke-miterlimit="4" stroke-opacity="1" fill="none" fill-rule="nonzero"/><path d="M856.096 533.412 864.493 528.362 864.493 520.902" stroke="#FFFFFF" stroke-width="1.99207" stroke-linecap="butt" stroke-linejoin="round" stroke-miterlimit="4" stroke-opacity="1" fill="none" fill-rule="nonzero"/><path d="M872.899 533.412 864.493 528.362" stroke="#FFFFFF" stroke-width="1.99207" stroke-linecap="butt" stroke-linejoin="round" stroke-miterlimit="4" stroke-opacity="1" fill="none" fill-rule="nonzero"/></g></g></g></g></g></svg>